<?xml version="1.0" encoding="UTF-8" standalone="no"?>
<!DOCTYPE svg PUBLIC "-//W3C//DTD SVG 1.1//EN" "http://www.w3.org/Graphics/SVG/1.1/DTD/svg11.dtd">
<svg width="100%" height="100%" viewBox="0 0 1024 1024" version="1.1" xmlns="http://www.w3.org/2000/svg" 
xmlns:xlink="http://www.w3.org/1999/xlink" xml:space="preserve" xmlns:serif="http://www.serif.com/" 
style="fill-rule:evenodd;clip-rule:evenodd;stroke-linejoin:round;stroke-miterlimit:2; color:white;">
    <g id="Artboard1" transform="matrix(5.85143,0,0,7.58519,0,0)">
        <rect x="0" y="0" width="175" height="135" style="fill:none;"/>
        <clipPath id="_clip1">
            <rect x="0" y="0" width="175" height="135"/>
        </clipPath>
        <g clip-path="url(#_clip1)">
            <g transform="matrix(1.2963,0,0,1,-1.13687e-13,0)">
                <circle cx="67.5" cy="67.5" r="67.5" style="fill:none;"/>
            </g>
            <g id="Hexagons" transform="matrix(1.00228,0,0,0.776484,-1.13687e-13,15.5754)">
                <path d="M143.985,94.076C144.685,94.228 145.386,94.384 146.087,94.543L146.087,96.514C146.087,99.483 144.478,102.229 141.888,103.681L90.096,132.7C88.853,133.396 87.467,133.743 86.081,133.743C84.649,133.743 83.217,133.373 81.946,132.632L31.855,103.463C29.337,101.997 27.774,99.277 27.774,96.364L27.774,94.778C28.42,94.642 29.121,94.498 29.875,94.347L29.875,96.364C29.875,98.531 31.039,100.556 32.913,101.646L83.004,130.816C84.866,131.9 87.189,131.919 89.068,130.866L140.86,101.847C142.788,100.767 143.985,98.724 143.985,96.514L143.985,94.076ZM27.774,49.398L27.774,37.779C27.774,34.858 29.344,32.134 31.872,30.67L82.923,1.107C85.523,-0.399 88.733,-0.366 91.302,1.193L142.133,32.037C144.572,33.516 146.087,36.207 146.087,39.06L146.087,49.284C145.432,49.136 144.731,48.981 143.985,48.821L143.985,39.06C143.985,36.937 142.858,34.935 141.043,33.833L90.211,2.99C89.237,2.398 88.139,2.102 87.04,2.102C85.982,2.102 84.925,2.376 83.976,2.926L32.926,32.488C31.044,33.578 29.875,35.605 29.875,37.779L29.875,48.903C29.175,49.064 28.475,49.229 27.774,49.398Z" style="fill:rgb(0,193,140);fill-rule:nonzero;"/>
                <path d="M138.01,92.863C138.709,92.995 139.408,93.13 140.107,93.269C140.023,96.146 138.432,98.784 135.912,100.197L90.19,125.816C88.948,126.511 87.562,126.859 86.176,126.859C84.744,126.859 83.312,126.488 82.041,125.748L37.83,100.003C35.513,98.653 34.005,96.243 33.779,93.598C34.446,93.475 35.14,93.35 35.86,93.224C35.968,95.268 37.108,97.149 38.888,98.187L83.098,123.931C84.96,125.015 87.284,125.034 89.163,123.982L134.885,98.363C136.812,97.283 138.01,95.239 138.01,93.03L138.01,92.863ZM33.749,48.047L33.749,41.192C33.749,38.271 35.319,35.547 37.848,34.083L82.903,7.992C85.503,6.486 88.713,6.519 91.282,8.078L136.158,35.308C138.597,36.787 140.111,39.479 140.111,42.331L140.111,48.023C139.435,47.89 138.735,47.755 138.01,47.619L138.01,42.331C138.01,40.209 136.882,38.206 135.068,37.105L90.191,9.875C89.217,9.283 88.119,8.987 87.02,8.987C85.963,8.987 84.905,9.261 83.956,9.811L38.901,35.902C37.02,36.991 35.851,39.018 35.851,41.192L35.851,47.612C35.151,47.753 34.45,47.898 33.749,48.047Z" style="fill:rgb(0,193,140);fill-rule:nonzero;"/>
            </g>
            <g id="Left-Chevron" serif:id="Left Chevron" transform="matrix(1.00228,0,0,0.776484,-1.13687e-13,15.5754)">
                <g transform="matrix(1,0,0,1,2.26562,71.1281)">
                    <path d="M0,4.354L6.477,14.655L13.97,13.52L13.97,-10.131L7.056,-8.814L0,4.354ZM5.954,16.848C5.596,16.848 5.259,16.666 5.064,16.357L-2.104,4.956C-2.306,4.636 -2.319,4.232 -2.141,3.9L5.44,-10.249C5.59,-10.529 5.858,-10.726 6.169,-10.785L14.824,-12.434C15.131,-12.494 15.449,-12.41 15.69,-12.211C15.932,-12.011 16.071,-11.714 16.071,-11.401L16.071,14.423C16.071,14.943 15.692,15.384 15.178,15.462L6.111,16.836C6.059,16.844 6.006,16.848 5.954,16.848" style="fill:rgb(0,193,140);fill-rule:nonzero;"/>
                </g>
                <g transform="matrix(1,0,0,1,11.1464,65.7034)">
                    <path d="M0,16.059C-0.258,16.059 -0.51,15.931 -0.658,15.696L-4.612,9.41C-4.754,9.183 -4.77,8.898 -4.652,8.657L-0.698,0.545C-0.51,0.16 -0.045,0 0.339,0.187C0.724,0.375 0.884,0.839 0.696,1.225L-3.069,8.949L0.656,14.87C0.884,15.233 0.775,15.712 0.412,15.94C0.284,16.02 0.141,16.059 0,16.059" style="fill:rgb(0,193,140);fill-rule:nonzero;"/>
                </g>
            </g>
            <g id="Right-Chevron" serif:id="Right Chevron" transform="matrix(1.00228,0,0,0.776484,-1.13687e-13,15.5754)">
                <g transform="matrix(1,0,0,1,157.555,62.514)">
                    <path d="M0,21.994L7.788,23.453L14.294,13.229L7.59,0.205L0,-1.301L0,21.994ZM8.292,25.668C8.229,25.668 8.164,25.662 8.099,25.65L-1.245,23.899C-1.742,23.806 -2.102,23.372 -2.102,22.866L-2.102,-2.581C-2.102,-2.896 -1.961,-3.194 -1.718,-3.393C-1.474,-3.593 -1.153,-3.674 -0.846,-3.612L8.497,-1.757C8.812,-1.695 9.08,-1.493 9.227,-1.208L16.439,12.804C16.61,13.136 16.591,13.534 16.391,13.848L9.179,25.182C8.984,25.489 8.647,25.668 8.292,25.668" style="fill:rgb(0,193,140);fill-rule:nonzero;"/>
                </g>
                <g transform="matrix(1,0,0,1,162.512,66.053)">
                    <path d="M0,16.06C-0.156,16.06 -0.312,16.013 -0.449,15.916C-0.798,15.668 -0.88,15.184 -0.632,14.835L3.621,8.85L-0.674,1.268C-0.886,0.895 -0.754,0.422 -0.382,0.211C-0.011,0 0.464,0.13 0.675,0.503L5.214,8.514C5.362,8.776 5.346,9.1 5.171,9.346L0.633,15.733C0.481,15.946 0.243,16.06 0,16.06" style="fill:rgb(0,193,140);fill-rule:nonzero;"/>
                </g>
            </g>
            <g id="Banner" transform="matrix(1.00228,0,0,0.776484,-1.13687e-13,15.5754)">
                <g transform="matrix(1,0,0,1,23.2817,76.1273)">
                    <path d="M0,-23.424L0,17.496C9.485,15.257 68.531,2.545 127.925,17.481L127.925,-23.43C120.646,-25.384 62.223,-39.975 0,-23.424M128.976,19.885C128.888,19.885 128.8,19.874 128.713,19.851C64.317,3.215 -0.142,19.682 -0.785,19.85C-1.1,19.932 -1.435,19.865 -1.693,19.665C-1.951,19.467 -2.102,19.159 -2.102,18.834L-2.102,-24.23C-2.102,-24.705 -1.783,-25.121 -1.325,-25.245C65.735,-43.356 128.642,-25.423 129.271,-25.239C129.719,-25.108 130.027,-24.697 130.027,-24.23L130.027,18.834C130.027,19.159 129.876,19.466 129.62,19.665C129.434,19.809 129.207,19.885 128.976,19.885" style="fill:rgb(0,193,140);fill-rule:nonzero;"/>
                </g>
                <g transform="matrix(1,0,0,1,152.259,54.5685)">
                    <path d="M0,4.046C-0.064,4.046 -0.129,4.04 -0.194,4.027L-10.095,2.173C-10.666,2.067 -11.041,1.517 -10.934,0.947C-10.828,0.377 -10.28,0 -9.708,0.108L0.192,1.962C0.763,2.068 1.139,2.618 1.032,3.188C0.937,3.693 0.496,4.046 0,4.046" style="fill:rgb(0,193,140);fill-rule:nonzero;"/>
                </g>
                <g transform="matrix(1,0,0,1,152.259,59.7208)">
                    <path d="M0,4.045C-0.064,4.045 -0.129,4.039 -0.194,4.026L-10.095,2.172C-10.666,2.066 -11.041,1.516 -10.934,0.946C-10.828,0.376 -10.28,0 -9.708,0.107L0.192,1.961C0.763,2.067 1.139,2.617 1.032,3.187C0.937,3.692 0.496,4.045 0,4.045" style="fill:rgb(0,193,140);fill-rule:nonzero;"/>
                </g>
                <g transform="matrix(1,0,0,1,152.259,64.8722)">
                    <path d="M0,4.045C-0.064,4.045 -0.129,4.039 -0.194,4.026L-10.095,2.172C-10.666,2.066 -11.041,1.516 -10.934,0.946C-10.828,0.376 -10.28,0 -9.708,0.107L0.192,1.961C0.763,2.067 1.139,2.617 1.032,3.187C0.937,3.692 0.496,4.045 0,4.045" style="fill:rgb(0,193,140);fill-rule:nonzero;"/>
                </g>
                <g transform="matrix(1,0,0,1,152.259,70.0241)">
                    <path d="M0,4.044C-0.064,4.044 -0.129,4.038 -0.194,4.025L-10.095,2.171C-10.666,2.065 -11.041,1.515 -10.934,0.945C-10.828,0.374 -10.28,0 -9.708,0.106L0.192,1.96C0.763,2.066 1.139,2.616 1.032,3.186C0.937,3.691 0.496,4.044 0,4.044" style="fill:rgb(0,193,140);fill-rule:nonzero;"/>
                </g>
                <g transform="matrix(1,0,0,1,152.259,75.0812)">
                    <path d="M0,4.045C-0.064,4.045 -0.129,4.039 -0.194,4.026L-10.095,2.172C-10.666,2.066 -11.041,1.516 -10.934,0.946C-10.828,0.376 -10.28,0 -9.708,0.107L0.192,1.961C0.763,2.067 1.139,2.617 1.032,3.187C0.937,3.692 0.496,4.045 0,4.045" style="fill:rgb(0,193,140);fill-rule:nonzero;"/>
                </g>
                <g transform="matrix(1,0,0,1,152.259,80.7379)">
                    <path d="M0,4.045C-0.064,4.045 -0.129,4.039 -0.194,4.026L-10.095,2.172C-10.666,2.066 -11.041,1.516 -10.934,0.946C-10.828,0.376 -10.28,0 -9.708,0.107L0.192,1.961C0.763,2.067 1.139,2.617 1.032,3.187C0.937,3.692 0.496,4.045 0,4.045" style="fill:rgb(0,193,140);fill-rule:nonzero;"/>
                </g>
                <g transform="matrix(1,0,0,1,151.671,85.0641)">
                    <path d="M0,4.046C-0.064,4.046 -0.129,4.04 -0.194,4.027L-10.095,2.173C-10.666,2.067 -11.041,1.517 -10.934,0.947C-10.828,0.377 -10.282,0 -9.708,0.108L0.192,1.962C0.763,2.068 1.139,2.618 1.032,3.188C0.937,3.693 0.496,4.046 0,4.046" style="fill:rgb(0,193,140);fill-rule:nonzero;"/>
                </g>
                <g transform="matrix(1,0,0,1,22.2299,54.6576)">
                    <path d="M0,4.266C-0.487,4.266 -0.924,3.926 -1.027,3.431C-1.146,2.863 -0.783,2.306 -0.215,2.186L9.607,0.126C10.174,0 10.732,0.371 10.851,0.938C10.97,1.506 10.606,2.063 10.039,2.183L0.217,4.243C0.144,4.259 0.071,4.266 0,4.266" style="fill:rgb(0,193,140);fill-rule:nonzero;"/>
                </g>
                <g transform="matrix(1,0,0,1,22.2299,59.6839)">
                    <path d="M0,4.266C-0.487,4.266 -0.924,3.926 -1.027,3.431C-1.146,2.863 -0.783,2.306 -0.215,2.186L9.607,0.126C10.174,0 10.732,0.37 10.851,0.938C10.97,1.506 10.606,2.063 10.039,2.183L0.217,4.243C0.144,4.259 0.071,4.266 0,4.266" style="fill:rgb(0,193,140);fill-rule:nonzero;"/>
                </g>
                <g transform="matrix(1,0,0,1,22.2299,64.6918)">
                    <path d="M0,4.264C-0.487,4.264 -0.924,3.924 -1.027,3.429C-1.146,2.861 -0.783,2.304 -0.215,2.184L9.607,0.124C10.174,0 10.732,0.368 10.851,0.936C10.97,1.504 10.606,2.061 10.039,2.181L0.217,4.241C0.144,4.257 0.071,4.264 0,4.264" style="fill:rgb(0,193,140);fill-rule:nonzero;"/>
                </g>
                <g transform="matrix(1,0,0,1,22.2299,70.2499)">
                    <path d="M0,4.265C-0.487,4.265 -0.924,3.925 -1.027,3.43C-1.146,2.862 -0.783,2.305 -0.215,2.185L9.607,0.125C10.174,0 10.732,0.369 10.851,0.937C10.97,1.505 10.606,2.062 10.039,2.182L0.217,4.242C0.144,4.258 0.071,4.265 0,4.265" style="fill:rgb(0,193,140);fill-rule:nonzero;"/>
                </g>
                <g transform="matrix(1,0,0,1,22.2299,75.4911)">
                    <path d="M0,4.264C-0.487,4.264 -0.924,3.924 -1.027,3.429C-1.146,2.861 -0.783,2.304 -0.215,2.184L9.607,0.124C10.174,0 10.732,0.368 10.851,0.936C10.97,1.504 10.606,2.061 10.039,2.181L0.217,4.241C0.144,4.257 0.071,4.264 0,4.264" style="fill:rgb(0,193,140);fill-rule:nonzero;"/>
                </g>
                <g transform="matrix(1,0,0,1,22.2299,80.3148)">
                    <path d="M0,4.263C-0.487,4.263 -0.924,3.923 -1.027,3.428C-1.146,2.86 -0.783,2.303 -0.215,2.183L9.607,0.123C10.174,0 10.732,0.367 10.851,0.935C10.97,1.503 10.606,2.06 10.039,2.18L0.217,4.24C0.144,4.256 0.071,4.263 0,4.263" style="fill:rgb(0,193,140);fill-rule:nonzero;"/>
                </g>
                <g transform="matrix(1,0,0,1,22.2299,85.7738)">
                    <path d="M0,4.263C-0.487,4.263 -0.924,3.923 -1.027,3.428C-1.146,2.859 -0.783,2.303 -0.215,2.183L9.607,0.123C10.174,0 10.732,0.368 10.851,0.936C10.97,1.504 10.606,2.061 10.039,2.18L0.217,4.24C0.144,4.256 0.071,4.263 0,4.263" style="fill:rgb(0,193,140);fill-rule:nonzero;"/>
                </g>
            </g>
            <g id="Association" transform="matrix(1.00228,0,0,0.776484,-1.13687e-13,15.5754)">
                <g transform="matrix(1,0,0,1,60.9609,101.66)">
                    <path d="M0,-1.494L-0.783,0.505L0.783,0.505L0,-1.494ZM1.215,1.504L-1.215,1.504L-1.548,2.278L-2.854,2.278L-0.198,-3.772L0.207,-3.772L2.854,2.278L1.549,2.278L1.215,1.504Z" style="fill:rgb(0,193,140);fill-rule:nonzero;"/>
                </g>
                <g transform="matrix(1,0,0,1,67.6255,103.741)">
                    <path d="M0,-5.546C0.333,-5.342 0.593,-5.069 0.779,-4.727L-0.049,-4.088C-0.355,-4.544 -0.733,-4.772 -1.184,-4.772C-1.394,-4.772 -1.569,-4.722 -1.71,-4.623C-1.852,-4.524 -1.922,-4.382 -1.922,-4.195C-1.922,-4.04 -1.869,-3.915 -1.764,-3.822C-1.659,-3.729 -1.481,-3.626 -1.229,-3.511L-0.554,-3.214C-0.055,-2.992 0.314,-2.748 0.554,-2.481C0.794,-2.213 0.914,-1.879 0.914,-1.477C0.914,-0.937 0.719,-0.504 0.329,-0.18C-0.062,0.143 -0.56,0.306 -1.166,0.306C-1.67,0.306 -2.122,0.187 -2.521,-0.05C-2.92,-0.287 -3.233,-0.607 -3.461,-1.009L-2.624,-1.639C-2.21,-1.063 -1.724,-0.775 -1.166,-0.775C-0.901,-0.775 -0.694,-0.833 -0.544,-0.95C-0.395,-1.067 -0.319,-1.228 -0.319,-1.432C-0.319,-1.552 -0.354,-1.658 -0.423,-1.752C-0.492,-1.844 -0.57,-1.915 -0.657,-1.963C-0.744,-2.011 -0.884,-2.08 -1.076,-2.17L-1.715,-2.458C-2.177,-2.668 -2.533,-2.908 -2.782,-3.178C-3.031,-3.448 -3.155,-3.778 -3.155,-4.169C-3.155,-4.673 -2.969,-5.079 -2.597,-5.388C-2.225,-5.697 -1.754,-5.852 -1.184,-5.852C-0.728,-5.852 -0.333,-5.75 0,-5.546" style="fill:rgb(0,193,140);fill-rule:nonzero;"/>
                </g>
                <g transform="matrix(1,0,0,1,72.6118,103.741)">
                    <path d="M0,-5.546C0.333,-5.342 0.593,-5.069 0.779,-4.727L-0.049,-4.088C-0.355,-4.544 -0.733,-4.772 -1.184,-4.772C-1.394,-4.772 -1.569,-4.722 -1.71,-4.623C-1.852,-4.524 -1.922,-4.382 -1.922,-4.195C-1.922,-4.04 -1.869,-3.915 -1.764,-3.822C-1.659,-3.729 -1.481,-3.626 -1.229,-3.511L-0.554,-3.214C-0.055,-2.992 0.314,-2.748 0.554,-2.481C0.794,-2.213 0.914,-1.879 0.914,-1.477C0.914,-0.937 0.719,-0.504 0.329,-0.18C-0.062,0.143 -0.56,0.306 -1.166,0.306C-1.67,0.306 -2.122,0.187 -2.521,-0.05C-2.92,-0.287 -3.233,-0.607 -3.461,-1.009L-2.624,-1.639C-2.21,-1.063 -1.724,-0.775 -1.166,-0.775C-0.901,-0.775 -0.694,-0.833 -0.544,-0.95C-0.395,-1.067 -0.319,-1.228 -0.319,-1.432C-0.319,-1.552 -0.354,-1.658 -0.423,-1.752C-0.492,-1.844 -0.57,-1.915 -0.657,-1.963C-0.744,-2.011 -0.884,-2.08 -1.076,-2.17L-1.715,-2.458C-2.177,-2.668 -2.533,-2.908 -2.782,-3.178C-3.031,-3.448 -3.155,-3.778 -3.155,-4.169C-3.155,-4.673 -2.969,-5.079 -2.597,-5.388C-2.225,-5.697 -1.754,-5.852 -1.184,-5.852C-0.728,-5.852 -0.333,-5.75 0,-5.546" style="fill:rgb(0,193,140);fill-rule:nonzero;"/>
                </g>
                <g transform="matrix(1,0,0,1,76.0449,102.372)">
                    <path d="M0,-2.809C-0.36,-2.443 -0.541,-1.975 -0.541,-1.404C-0.541,-0.828 -0.362,-0.359 -0.005,0.004C0.353,0.368 0.81,0.549 1.368,0.549C1.915,0.549 2.369,0.366 2.732,0C3.095,-0.366 3.277,-0.834 3.277,-1.404C3.277,-1.975 3.095,-2.443 2.732,-2.809C2.369,-3.175 1.915,-3.358 1.368,-3.358C0.816,-3.358 0.36,-3.175 0,-2.809M3.601,-3.597C4.219,-3.005 4.528,-2.275 4.528,-1.404C4.528,-0.534 4.219,0.196 3.601,0.788C2.983,1.379 2.235,1.674 1.359,1.674C0.483,1.674 -0.261,1.379 -0.874,0.788C-1.486,0.196 -1.792,-0.534 -1.792,-1.404C-1.792,-2.275 -1.486,-3.005 -0.874,-3.597C-0.261,-4.188 0.483,-4.483 1.359,-4.483C2.235,-4.483 2.983,-4.188 3.601,-3.597" style="fill:rgb(0,193,140);fill-rule:nonzero;"/>
                </g>
                <g transform="matrix(1,0,0,1,85.9589,103.654)">
                    <path d="M0,-5.374C0.459,-5.113 0.821,-4.751 1.085,-4.289L0.167,-3.641C-0.253,-4.307 -0.821,-4.64 -1.535,-4.64C-2.093,-4.64 -2.552,-4.457 -2.912,-4.091C-3.272,-3.725 -3.453,-3.254 -3.453,-2.678C-3.453,-2.107 -3.272,-1.641 -2.912,-1.278C-2.552,-0.915 -2.093,-0.733 -1.535,-0.733C-0.821,-0.733 -0.253,-1.066 0.167,-1.732L1.085,-1.084C0.827,-0.622 0.467,-0.26 0.004,0.001C-0.458,0.262 -0.974,0.392 -1.544,0.392C-2.432,0.392 -3.181,0.097 -3.79,-0.495C-4.399,-1.086 -4.704,-1.816 -4.704,-2.686C-4.704,-3.557 -4.398,-4.288 -3.786,-4.879C-3.173,-5.47 -2.423,-5.766 -1.535,-5.766C-0.971,-5.766 -0.459,-5.635 0,-5.374" style="fill:rgb(0,193,140);fill-rule:nonzero;"/>
                </g>
                <g transform="matrix(-1,0,0,1,294.693,-15.7615)">
                    <rect x="205.4" y="113.758" width="1.215" height="5.942" style="fill:rgb(0,193,140);"/>
                </g>
                <g transform="matrix(1,0,0,1,92.938,101.66)">
                    <path d="M0,-1.494L-0.783,0.505L0.783,0.505L0,-1.494ZM1.215,1.504L-1.215,1.504L-1.548,2.278L-2.854,2.278L-0.198,-3.772L0.207,-3.772L2.854,2.278L1.549,2.278L1.215,1.504Z" style="fill:rgb(0,193,140);fill-rule:nonzero;"/>
                </g>
                <g transform="matrix(1,0,0,1,100.391,102.839)">
                    <path d="M0,-3.744L-1.909,-3.744L-1.909,1.099L-3.124,1.099L-3.124,-3.744L-5.023,-3.744L-5.023,-4.843L0,-4.843L0,-3.744Z" style="fill:rgb(0,193,140);fill-rule:nonzero;"/>
                </g>
                <g transform="matrix(-1,0,0,1,320.919,-15.7615)">
                    <rect x="218.513" y="113.758" width="1.215" height="5.942" style="fill:rgb(0,193,140);"/>
                </g>
                <g transform="matrix(1,0,0,1,105.214,102.372)">
                    <path d="M0,-2.809C-0.36,-2.443 -0.541,-1.975 -0.541,-1.404C-0.541,-0.828 -0.362,-0.359 -0.005,0.004C0.353,0.368 0.81,0.549 1.368,0.549C1.915,0.549 2.369,0.366 2.732,0C3.095,-0.366 3.277,-0.834 3.277,-1.404C3.277,-1.975 3.095,-2.443 2.732,-2.809C2.369,-3.175 1.915,-3.358 1.368,-3.358C0.816,-3.358 0.36,-3.175 0,-2.809M3.601,-3.597C4.219,-3.005 4.528,-2.275 4.528,-1.404C4.528,-0.534 4.219,0.196 3.601,0.788C2.983,1.379 2.235,1.674 1.359,1.674C0.483,1.674 -0.261,1.379 -0.874,0.788C-1.486,0.196 -1.792,-0.534 -1.792,-1.404C-1.792,-2.275 -1.486,-3.005 -0.874,-3.597C-0.261,-4.188 0.483,-4.483 1.359,-4.483C2.235,-4.483 2.983,-4.188 3.601,-3.597" style="fill:rgb(0,193,140);fill-rule:nonzero;"/>
                </g>
                <g transform="matrix(1,0,0,1,115.826,103.938)">
                    <path d="M0,-5.942L0,0.108L-0.405,0.108L-3.844,-3.565L-3.844,0L-5.06,0L-5.06,-6.05L-4.663,-6.05L-1.215,-2.404L-1.215,-5.942L0,-5.942Z" style="fill:rgb(0,193,140);fill-rule:nonzero;"/>
                </g>
                <g transform="matrix(1,0,0,1,86.9301,115.984)">
                    <path d="M0,-6.074L0.987,-4.074L3.194,-3.754L1.597,-2.198L1.974,0L0,-1.037L-1.974,0L-1.597,-2.198L-3.193,-3.754L-0.987,-4.074L0,-6.074Z" style="fill:rgb(0,193,140);fill-rule:nonzero;"/>
                </g>
            </g>
            <g id="Freelancers" transform="matrix(1.00228,0,0,0.776484,-1.13687e-13,15.5754)">
                <g transform="matrix(1,0,0,1,43.3393,79.868)">
                    <path d="M0,-7.505L-4.375,-6.528L-3.836,-4.114L-0.251,-4.914L0.147,-3.129L-3.438,-2.329L-2.619,1.344L-4.594,1.785L-6.749,-7.873L-0.398,-9.29L0,-7.505Z" style="fill:rgb(0,193,140);fill-rule:nonzero;"/>
                </g>
                <g transform="matrix(1,0,0,1,47.5825,74.9383)">
                    <path d="M0,-0.526L1.669,-0.818C2.132,-0.899 2.471,-1.089 2.688,-1.391C2.904,-1.693 2.975,-2.055 2.901,-2.479C2.829,-2.892 2.637,-3.204 2.327,-3.413C2.016,-3.623 1.634,-3.688 1.182,-3.609L-0.487,-3.318L0,-0.526ZM4.896,3.977L1.769,0.976L0.307,1.231L0.908,4.673L-1.086,5.021L-2.789,-4.727L0.875,-5.367C1.909,-5.547 2.803,-5.407 3.559,-4.945C4.314,-4.484 4.774,-3.78 4.939,-2.835C5.048,-2.214 4.991,-1.638 4.769,-1.108C4.547,-0.577 4.193,-0.132 3.708,0.227L7.141,3.585L4.896,3.977Z" style="fill:rgb(0,193,140);fill-rule:nonzero;"/>
                </g>
                <g transform="matrix(1,0,0,1,61.4394,76.579)">
                    <path d="M0,-7.029L-4.597,-6.445L-4.344,-4.451L-0.966,-4.881L-0.749,-3.17L-4.126,-2.74L-3.81,-0.256L0.966,-0.863L1.196,0.952L-5.587,1.815L-6.836,-8.004L-0.231,-8.844L0,-7.029Z" style="fill:rgb(0,193,140);fill-rule:nonzero;"/>
                </g>
                <g transform="matrix(1,0,0,1,70.2256,75.54)">
                    <path d="M0,-6.782L-4.616,-6.386L-4.444,-4.385L-1.053,-4.676L-0.906,-2.957L-4.297,-2.666L-4.083,-0.172L0.712,-0.583L0.869,1.239L-5.943,1.823L-6.789,-8.035L-0.157,-8.605L0,-6.782Z" style="fill:rgb(0,193,140);fill-rule:nonzero;"/>
                </g>
                <g transform="matrix(1,0,0,1,74.6894,68.6278)">
                    <path d="M0,6.139L4.33,5.936L4.416,7.764L-1.937,8.062L-2.4,-1.828L-0.378,-1.923L0,6.139Z" style="fill:rgb(0,193,140);fill-rule:nonzero;"/>
                </g>
                <g transform="matrix(1,0,0,1,84.292,72.5625)">
                    <path d="M0,-2.513L-1.288,0.823L1.322,0.81L0,-2.513ZM2.05,2.472L-2,2.492L-2.548,3.785L-4.723,3.796L-0.35,-6.306L0.326,-6.309L4.787,3.748L2.612,3.759L2.05,2.472Z" style="fill:rgb(0,193,140);fill-rule:nonzero;"/>
                </g>
                <g transform="matrix(1,0,0,1,99.1552,76.3466)">
                    <path d="M0,-9.529L-0.431,0.54L-1.105,0.512L-6.567,-5.847L-6.821,0.087L-8.844,0L-8.414,-10.069L-7.754,-10.041L-2.275,-3.727L-2.023,-9.616L0,-9.529Z" style="fill:rgb(0,193,140);fill-rule:nonzero;"/>
                </g>
                <g transform="matrix(1,0,0,1,108.984,76.5204)">
                    <path d="M0,-8.405C0.722,-7.903 1.268,-7.248 1.636,-6.442L0.015,-5.505C-0.582,-6.673 -1.473,-7.311 -2.658,-7.419C-3.584,-7.504 -4.374,-7.269 -5.026,-6.716C-5.679,-6.163 -6.049,-5.408 -6.136,-4.452C-6.222,-3.506 -5.993,-2.704 -5.451,-2.048C-4.908,-1.391 -4.173,-1.02 -3.247,-0.936C-2.062,-0.828 -1.071,-1.296 -0.273,-2.338L1.153,-1.123C0.655,-0.395 0.003,0.15 -0.803,0.514C-1.609,0.877 -2.486,1.016 -3.432,0.93C-4.906,0.796 -6.104,0.193 -7.025,-0.88C-7.947,-1.953 -8.342,-3.212 -8.211,-4.655C-8.08,-6.1 -7.461,-7.266 -6.356,-8.155C-5.251,-9.043 -3.962,-9.421 -2.488,-9.286C-1.552,-9.201 -0.723,-8.907 0,-8.405" style="fill:rgb(0,193,140);fill-rule:nonzero;"/>
                </g>
                <g transform="matrix(1,0,0,1,119.22,76.1008)">
                    <path d="M0,-5.312L-4.592,-5.935L-4.862,-3.943L-1.489,-3.486L-1.72,-1.777L-5.094,-2.234L-5.43,0.248L-0.66,0.895L-0.905,2.708L-7.683,1.789L-6.353,-8.02L0.246,-7.125L0,-5.312Z" style="fill:rgb(0,193,140);fill-rule:nonzero;"/>
                </g>
                <g transform="matrix(1,0,0,1,122.857,75.614)">
                    <path d="M0,-1.398L1.669,-1.104C2.132,-1.022 2.516,-1.086 2.822,-1.295C3.128,-1.505 3.319,-1.822 3.394,-2.246C3.467,-2.659 3.393,-3.018 3.172,-3.32C2.952,-3.624 2.615,-3.815 2.162,-3.895L0.493,-4.19L0,-1.398ZM3.069,4.505L1.152,0.618L-0.311,0.359L-0.918,3.801L-2.913,3.449L-1.19,-6.3L2.473,-5.653C3.506,-5.47 4.3,-5.033 4.853,-4.341C5.406,-3.649 5.599,-2.831 5.432,-1.886C5.323,-1.265 5.073,-0.743 4.684,-0.319C4.294,0.104 3.81,0.402 3.231,0.574L5.314,4.902L3.069,4.505Z" style="fill:rgb(0,193,140);fill-rule:nonzero;"/>
                </g>
                <g transform="matrix(1,0,0,1,136.229,80.6942)">
                    <path d="M0,-8.213C0.47,-7.762 0.796,-7.226 0.978,-6.603L-0.597,-5.855C-0.935,-6.706 -1.469,-7.212 -2.203,-7.371C-2.545,-7.445 -2.848,-7.427 -3.113,-7.316C-3.378,-7.204 -3.543,-6.997 -3.609,-6.694C-3.665,-6.44 -3.623,-6.218 -3.485,-6.03C-3.347,-5.841 -3.093,-5.609 -2.722,-5.334L-1.728,-4.611C-0.995,-4.073 -0.48,-3.544 -0.184,-3.024C0.112,-2.504 0.189,-1.916 0.047,-1.261C-0.145,-0.381 -0.615,0.253 -1.366,0.643C-2.116,1.033 -2.984,1.12 -3.972,0.906C-4.793,0.727 -5.487,0.374 -6.053,-0.153C-6.619,-0.681 -7.017,-1.313 -7.246,-2.048L-5.659,-2.778C-5.188,-1.693 -4.499,-1.052 -3.589,-0.854C-3.159,-0.76 -2.801,-0.782 -2.515,-0.92C-2.229,-1.057 -2.05,-1.293 -1.978,-1.625C-1.936,-1.82 -1.954,-2.006 -2.033,-2.182C-2.113,-2.358 -2.215,-2.501 -2.34,-2.609C-2.464,-2.718 -2.667,-2.88 -2.948,-3.095L-3.887,-3.791C-4.565,-4.296 -5.06,-4.814 -5.37,-5.342C-5.68,-5.87 -5.766,-6.452 -5.627,-7.087C-5.449,-7.908 -5.002,-8.505 -4.286,-8.876C-3.571,-9.248 -2.749,-9.333 -1.82,-9.131C-1.077,-8.969 -0.47,-8.663 0,-8.213" style="fill:rgb(0,193,140);fill-rule:nonzero;"/>
                </g>
            </g>
            <g transform="matrix(0.170898,0,0,0.131836,0,-1.77636e-15)">
                <g id="Pakistan">
                    <path id="Shape-with-letters-cutout" serif:id="Shape with letters cutout" d="M322.782,453.495L320.445,424.25C461.896,399.234 590.378,400.617 707.931,424.25L705.588,453.565C716.538,455.259 727.465,457.093 738.366,459.066C742.105,459.743 745.841,460.436 749.574,461.146C750.196,461.264 750.819,461.383 751.442,461.502C751.936,461.597 753.642,461.771 754.586,462.703C754.586,462.703 755.997,463.511 754.052,465.48L752.553,465.789C736.827,462.766 721.062,460.04 705.265,457.61L702.931,486.825C572.476,470.018 453.339,470.345 325.445,486.825L323.099,457.465C317.891,458.277 312.686,459.124 307.488,460.005C296.902,461.799 286.343,463.737 275.828,465.788C275.828,465.788 274.486,466.657 273.482,464.208L273.485,463.427C273.785,462.712 273.79,462.704 274.34,462.158L275.063,461.862C290.922,458.769 306.83,455.978 322.782,453.495ZM631.189,427.489L628.086,462.946L625.717,462.734L607.536,439.434L605.706,460.325L598.616,459.701L601.724,424.25L604.035,424.45L622.28,447.597L624.098,426.865L631.189,427.489ZM415.94,428.128C418.456,429.99 419.852,432.605 420.151,435.985C420.439,439.331 419.512,442.158 417.365,444.461C415.207,446.758 412.292,448.071 408.609,448.395L402.668,448.913L403.736,461.229L396.634,461.847L393.601,426.974L406.651,425.831C410.334,425.507 413.43,426.273 415.94,428.128ZM443.628,453.677L429.395,454.561L427.729,459.237L420.081,459.708L433.447,423.18L435.817,423.027L453.505,457.635L445.857,458.112L443.628,453.677ZM584.957,454.264L570.724,453.421L568.507,457.862L560.865,457.409L578.494,422.753L580.864,422.895L594.282,459.388L586.64,458.928L584.957,454.264ZM479.996,456.717L464.461,438.965L465.053,457.206L457.927,457.441L456.784,422.45L463.909,422.214L464.449,438.488L477.216,421.773L485.72,421.496L472.9,438.423L488.6,456.434L479.996,456.717ZM564.477,429.068L553.305,428.691L552.355,457.174L545.235,456.932L546.185,428.455L535.059,428.084L535.276,421.623L564.688,422.607L564.477,429.068ZM526.244,422.658C528.191,423.877 529.698,425.491 530.772,427.517L525.886,431.245C524.115,428.548 521.904,427.187 519.265,427.164C518.033,427.152 517.001,427.435 516.168,428.012C515.341,428.589 514.919,429.425 514.907,430.521C514.902,431.44 515.207,432.176 515.816,432.73C516.426,433.283 517.47,433.902 518.942,434.585L522.889,436.364C525.798,437.695 527.957,439.155 529.352,440.734C530.748,442.318 531.434,444.297 531.417,446.665C531.387,449.845 530.226,452.384 527.927,454.274C525.622,456.165 522.69,457.096 519.136,457.072C516.18,457.043 513.535,456.324 511.207,454.91C508.878,453.497 507.055,451.6 505.735,449.221L510.673,445.546C513.078,448.962 515.91,450.682 519.189,450.705C520.737,450.717 521.951,450.387 522.837,449.704C523.722,449.021 524.174,448.078 524.18,446.877C524.185,446.17 523.986,445.54 523.587,444.992C523.188,444.438 522.731,444.014 522.227,443.732C521.722,443.443 520.901,443.031 519.775,442.489L516.045,440.763C513.342,439.509 511.265,438.077 509.823,436.475C508.374,434.873 507.659,432.924 507.676,430.627C507.7,427.653 508.808,425.267 511.002,423.465C513.201,421.663 515.975,420.773 519.318,420.803C521.992,420.82 524.297,421.439 526.244,422.658ZM492.713,421.5L499.841,421.423L500.214,456.421L493.086,456.497L492.713,421.5ZM435.429,436.497L431.565,448.529L440.737,447.964L435.429,436.497ZM578.87,436.217L573.597,447.697L582.77,448.238L578.87,436.217ZM401.249,432.64L402.123,442.682L408.07,442.158C409.718,442.011 410.967,441.433 411.812,440.42C412.662,439.401 413.02,438.141 412.891,436.627C412.762,435.143 412.181,433.989 411.155,433.152C410.128,432.322 408.809,431.98 407.196,432.122L401.249,432.64Z" style="fill:rgb(0,193,140);"/>
                </g>
            </g>
            <g transform="matrix(1.00228,0,0,0.773186,67.4116,42.9514)">
                <path d="M0,-6.075L0.987,-4.075L3.193,-3.755L1.597,-2.199L1.974,0L0,-1.038L-1.974,0L-1.597,-2.199L-3.193,-3.755L-0.987,-4.075L0,-6.075Z" style="fill:rgb(0,193,140);fill-rule:nonzero;"/>
            </g>
            <g transform="matrix(1.00228,0,0,0.773186,106.843,42.9514)">
                <path d="M0,-6.075L0.987,-4.075L3.194,-3.755L1.597,-2.199L1.974,0L0,-1.038L-1.974,0L-1.597,-2.199L-3.193,-3.755L-0.987,-4.075L0,-6.075Z" style="fill:rgb(0,193,140);fill-rule:nonzero;"/>
            </g>
            <g transform="matrix(0.104008,0,0,0.080235,64.0981,21.4738)">
                <path d="M225,201.008L246.408,179.503C266.905,170.673 286.05,161.167 304.222,151.175C334.042,148.991 365.653,144.734 400.994,136.159C401.598,150.862 387.362,159.53 354.126,160.475C367.197,161.388 380.268,160.271 393.339,155.792C392.517,175.057 369.546,179.748 333.396,175.77C344.726,179.463 359.979,179.976 378.189,178.092C374.509,196.147 352.503,197.292 321.22,190.287C334.724,196.475 348.066,198.607 361.337,198.519C352.185,215.331 332.412,214.147 306.525,202.604C311.29,207.608 321.732,210.458 331.149,212.207C321.857,224.593 304.461,221.492 283.083,209.472C285.24,213.041 290.613,215.92 298.354,218.094C289.698,229.665 275.57,226.162 257.849,214.257C261.364,218.959 267.087,222.849 275.715,225.925C265.981,234.329 254.785,233.961 242.03,224.237C239.022,229.375 237.679,233.324 237.925,236.138C242.631,247.346 253.479,259.453 267.714,272.055C256.8,279.468 247.289,275.47 238.606,264.735L245.415,281.928C237.986,283.062 231.091,279.395 225,268.48C218.909,279.395 212.014,283.062 204.585,281.928L211.394,264.735C202.711,275.47 193.2,279.468 182.286,272.055C196.521,259.453 207.369,247.346 212.075,236.138C212.321,233.324 210.978,229.375 207.97,224.237C195.215,233.961 184.019,234.329 174.285,225.925C182.913,222.849 188.636,218.959 192.151,214.257C174.43,226.162 160.302,229.665 151.646,218.094C159.387,215.92 164.76,213.041 166.917,209.472C145.539,221.492 128.143,224.593 118.851,212.207C128.268,210.458 138.71,207.608 143.475,202.604C117.588,214.147 97.815,215.331 88.663,198.519C101.934,198.607 115.276,196.475 128.78,190.287C97.497,197.292 75.491,196.147 71.811,178.092C90.021,179.976 105.274,179.463 116.604,175.77C80.454,179.748 57.483,175.057 56.661,155.792C69.732,160.271 82.803,161.388 95.874,160.475C62.638,159.53 48.402,150.862 49.006,136.159C84.347,144.734 115.958,148.991 145.778,151.175C163.95,161.167 183.095,170.673 203.592,179.503L225,201.008Z" style="fill:rgb(0,193,140);"/>
                <path d="M225,140.993L228.985,150.734C234.562,153.493 236.864,158.715 236.306,164.635C237.393,169.663 238.955,172.951 241.343,176.492L225,193.278L208.657,176.492C211.045,172.951 212.607,169.663 213.694,164.635C213.136,158.715 215.438,153.493 221.015,150.734L225,140.993Z" style="fill:rgb(0,193,140);"/>
            </g>
        </g>
    </g>
</svg>
